<svg width="14" height="18" viewBox="0 0 14 18" fill="none" xmlns="http://www.w3.org/2000/svg">
<path d="M10.3333 4.83336C10.3333 5.71742 9.9821 6.56527 9.35698 7.19039C8.73186 7.81551 7.88402 8.1667 6.99996 8.1667C6.1159 8.1667 5.26806 7.81551 4.64294 7.19039C4.01782 6.56527 3.66663 5.71742 3.66663 4.83336C3.66663 3.94931 4.01782 3.10146 4.64294 2.47634C5.26806 1.85122 6.1159 1.50003 6.99996 1.50003C7.88402 1.50003 8.73186 1.85122 9.35698 2.47634C9.9821 3.10146 10.3333 3.94931 10.3333 4.83336V4.83336ZM6.99996 10.6667C5.45286 10.6667 3.96913 11.2813 2.87517 12.3752C1.78121 13.4692 1.16663 14.9529 1.16663 16.5H12.8333C12.8333 14.9529 12.2187 13.4692 11.1247 12.3752C10.0308 11.2813 8.54706 10.6667 6.99996 10.6667V10.6667Z" stroke="#999999" stroke-width="2" stroke-linecap="round" stroke-linejoin="round"/>
</svg>
