<svg width="20" height="20" viewBox="0 0 20 20" fill="none" xmlns="http://www.w3.org/2000/svg">
<path fill-rule="evenodd" clip-rule="evenodd" d="M3.23223 3.23223C3.70107 2.76339 4.33696 2.5 5 2.5H15C15.663 2.5 16.2989 2.76339 16.7678 3.23223C17.2366 3.70107 17.5 4.33696 17.5 5V15C17.5 15.663 17.2366 16.2989 16.7678 16.7678C16.2989 17.2366 15.663 17.5 15 17.5H5C4.33696 17.5 3.70107 17.2366 3.23223 16.7678C2.76339 16.2989 2.5 15.663 2.5 15V5C2.5 4.33696 2.76339 3.70107 3.23223 3.23223ZM5 4.16667C4.77899 4.16667 4.56702 4.25446 4.41074 4.41074C4.25446 4.56702 4.16667 4.77899 4.16667 5V15C4.16667 15.221 4.25446 15.433 4.41074 15.5893C4.56702 15.7455 4.77899 15.8333 5 15.8333H15C15.221 15.8333 15.433 15.7455 15.5893 15.5893C15.7455 15.433 15.8333 15.221 15.8333 15V5C15.8333 4.77899 15.7455 4.56702 15.5893 4.41074C15.433 4.25446 15.221 4.16667 15 4.16667H5ZM13.3333 5.83333C13.7936 5.83333 14.1667 6.20643 14.1667 6.66667V13.3333C14.1667 13.7936 13.7936 14.1667 13.3333 14.1667C12.8731 14.1667 12.5 13.7936 12.5 13.3333V6.66667C12.5 6.20643 12.8731 5.83333 13.3333 5.83333ZM10 8.33333C10.4602 8.33333 10.8333 8.70643 10.8333 9.16667V13.3333C10.8333 13.7936 10.4602 14.1667 10 14.1667C9.53976 14.1667 9.16667 13.7936 9.16667 13.3333V9.16667C9.16667 8.70643 9.53976 8.33333 10 8.33333ZM6.66667 10.8333C7.1269 10.8333 7.5 11.2064 7.5 11.6667V13.3333C7.5 13.7936 7.1269 14.1667 6.66667 14.1667C6.20643 14.1667 5.83333 13.7936 5.83333 13.3333V11.6667C5.83333 11.2064 6.20643 10.8333 6.66667 10.8333Z" fill="#3C84E7"/>
</svg>
