<svg width="1189" height="24" viewBox="0 0 1189 24" fill="none" xmlns="http://www.w3.org/2000/svg">
<path d="M33 24L73 0H-7L33 24Z" fill="#F9F9F9"/>
<path d="M112.5 24L152 0H73L112.5 24Z" fill="#F9F9F9"/>
<path d="M192 24L232 0H152L192 24Z" fill="#F9F9F9"/>
<path d="M272 24L312 0H232L272 24Z" fill="#F9F9F9"/>
<path d="M352 24L392 0H312L352 24Z" fill="#F9F9F9"/>
<path d="M431.5 24L471 0H392L431.5 24Z" fill="#F9F9F9"/>
<path d="M511 24L551 0H471L511 24Z" fill="#F9F9F9"/>
<path d="M591 24L631 0H551L591 24Z" fill="#F9F9F9"/>
<path d="M671 24L711 0H631L671 24Z" fill="#F9F9F9"/>
<path d="M750.5 24L790 0H711L750.5 24Z" fill="#F9F9F9"/>
<path d="M830 24L870 0H790L830 24Z" fill="#F9F9F9"/>
<path d="M910 24L950 0H870L910 24Z" fill="#F9F9F9"/>
<path d="M990 24L1030 0H950L990 24Z" fill="#F9F9F9"/>
<path d="M1069.5 24L1109 0H1030L1069.5 24Z" fill="#F9F9F9"/>
<path d="M1149 24L1189 0H1109L1149 24Z" fill="#F9F9F9"/>
</svg>
