<svg width="20" height="20" viewBox="0 0 20 20" fill="none" xmlns="http://www.w3.org/2000/svg">
<path fill-rule="evenodd" clip-rule="evenodd" d="M10.0004 19.6C12.5465 19.6 14.9883 18.5886 16.7886 16.7882C18.589 14.9879 19.6004 12.5461 19.6004 9.99999C19.6004 7.45392 18.589 5.01212 16.7886 3.21177C14.9883 1.41142 12.5465 0.399994 10.0004 0.399994C7.45431 0.399994 5.01251 1.41142 3.21217 3.21177C1.41182 5.01212 0.400391 7.45392 0.400391 9.99999C0.400391 12.5461 1.41182 14.9879 3.21217 16.7882C5.01251 18.5886 7.45431 19.6 10.0004 19.6ZM11.2004 6.39999C11.2004 6.08173 11.074 5.77651 10.8489 5.55147C10.6239 5.32642 10.3187 5.19999 10.0004 5.19999C9.68213 5.19999 9.37691 5.32642 9.15186 5.55147C8.92682 5.77651 8.80039 6.08173 8.80039 6.39999V8.79999H6.40039C6.08213 8.79999 5.77691 8.92642 5.55186 9.15147C5.32682 9.37651 5.20039 9.68173 5.20039 9.99999C5.20039 10.3183 5.32682 10.6235 5.55186 10.8485C5.77691 11.0736 6.08213 11.2 6.40039 11.2H8.80039V13.6C8.80039 13.9183 8.92682 14.2235 9.15186 14.4485C9.37691 14.6736 9.68213 14.8 10.0004 14.8C10.3187 14.8 10.6239 14.6736 10.8489 14.4485C11.074 14.2235 11.2004 13.9183 11.2004 13.6V11.2H13.6004C13.9186 11.2 14.2239 11.0736 14.4489 10.8485C14.674 10.6235 14.8004 10.3183 14.8004 9.99999C14.8004 9.68173 14.674 9.37651 14.4489 9.15147C14.2239 8.92642 13.9186 8.79999 13.6004 8.79999H11.2004V6.39999Z" fill="#3C84E7"/>
</svg>
