<svg width="65" height="10" viewBox="0 0 65 10" fill="none" xmlns="http://www.w3.org/2000/svg">
<rect width="11" height="2" fill="#3C84E7"/>
<rect y="4" width="11" height="2" fill="#3C84E7"/>
<rect y="8" width="11" height="2" fill="#3C84E7"/>
<path d="M22.4612 5.56035L24.7204 9.91379H25.9369L23.5763 5.45977C24.2425 5.31609 24.7784 5 25.1549 4.54023C25.5314 4.08046 25.7197 3.50575 25.7197 2.78736C25.7197 1.89655 25.4445 1.22126 24.9087 0.732759C24.3729 0.244253 23.6343 0 22.7074 0H19V9.91379H20.0572V5.56035H22.4612ZM20.0572 4.65517V0.948276H22.6205C23.2722 0.948276 23.7791 1.10632 24.1267 1.42241C24.4742 1.73851 24.6625 2.19828 24.6625 2.80172C24.6625 3.40517 24.4742 3.86494 24.1267 4.18103C23.7646 4.49713 23.2577 4.65517 22.6205 4.65517H20.0572Z" fill="#3C84E7"/>
<path d="M28.1663 6.46552H32.7571V5.60345C32.7571 4.56897 32.4964 3.7931 31.9895 3.29023C31.4827 2.78736 30.8165 2.52874 29.9765 2.52874C29.1366 2.52874 28.4559 2.78736 27.949 3.29023C27.4277 3.7931 27.1815 4.56897 27.1815 5.60345V6.86782C27.1815 7.9454 27.4277 8.73563 27.949 9.23851C28.4559 9.75575 29.1366 10 30.0055 10C30.8454 10 31.4971 9.79885 31.9751 9.38218C32.453 8.97989 32.6992 8.43391 32.6992 7.74425V7.67241H31.7433V7.71552C31.7433 8.16092 31.584 8.50575 31.2944 8.75C31.0048 9.00862 30.5993 9.12356 30.0779 9.12356C29.4696 9.12356 29.0062 8.96552 28.6731 8.63506C28.3256 8.3046 28.1663 7.72989 28.1663 6.89655V6.46552ZM28.6587 3.90805C28.9773 3.59195 29.4262 3.41954 29.9765 3.41954C30.5268 3.41954 30.9758 3.57759 31.2944 3.87931C31.613 4.1954 31.7723 4.72701 31.7723 5.47414V5.73276H28.1663V5.57471C28.1663 4.78448 28.3256 4.22414 28.6587 3.90805Z" fill="#3C84E7"/>
<path d="M35.2325 9.29598C35.7394 9.77011 36.42 10 37.289 10C38.1289 10 38.7951 9.77011 39.302 9.28161C39.8088 8.80747 40.0695 8.04598 40.0695 7.01149V5.51724C40.0695 4.48276 39.8088 3.73563 39.302 3.24713C38.7951 2.77299 38.1289 2.52874 37.289 2.52874C36.42 2.52874 35.7394 2.77299 35.2325 3.24713C34.7111 3.73563 34.465 4.48276 34.465 5.51724V7.01149C34.465 8.06034 34.7111 8.82184 35.2325 9.29598ZM38.5924 8.64943C38.2737 8.96552 37.8393 9.12356 37.289 9.12356C36.7097 9.12356 36.2607 8.96552 35.9421 8.64943C35.609 8.33333 35.4497 7.75862 35.4497 6.95402V5.57471C35.4497 4.78448 35.609 4.22414 35.9421 3.90805C36.2607 3.59195 36.7097 3.41954 37.289 3.41954C37.8393 3.41954 38.2737 3.59195 38.5924 3.90805C38.911 4.22414 39.0847 4.78448 39.0847 5.57471V6.95402C39.0847 7.75862 38.911 8.33333 38.5924 8.64943Z" fill="#3C84E7"/>
<path d="M42.0084 2.62931V9.91379H42.9932V5.30172C42.9932 4.75575 43.138 4.29598 43.4566 3.95115C43.7752 3.60632 44.1807 3.43391 44.6876 3.43391C44.9483 3.43391 45.209 3.47701 45.4407 3.54885V2.57184C45.2669 2.5431 45.0786 2.52874 44.9048 2.52874C44.4849 2.52874 44.1083 2.62931 43.7752 2.80172C43.4422 2.97414 43.1815 3.24713 42.9787 3.60632V2.62931H42.0084Z" fill="#3C84E7"/>
<path d="M47.3511 9.28161C47.8145 9.77011 48.4083 10 49.1324 10C49.5958 10 49.9868 9.91379 50.3199 9.74138C50.653 9.56896 50.9137 9.29598 51.1164 8.95115V9.91379H52.1157V0H51.1164V3.64943C50.682 2.9023 50.0303 2.52874 49.1469 2.52874C48.4083 2.52874 47.8145 2.77299 47.3511 3.26149C46.8876 3.75 46.6559 4.49713 46.6559 5.51724V7.01149C46.6559 8.04598 46.8876 8.7931 47.3511 9.28161ZM50.653 8.52011C50.3344 8.92241 49.8854 9.12356 49.2772 9.12356C48.191 9.12356 47.6552 8.40517 47.6552 6.95402V5.57471C47.6552 4.13793 48.2055 3.41954 49.3351 3.41954C49.9144 3.41954 50.3634 3.63506 50.6675 4.03736C50.9571 4.43966 51.1164 4.98563 51.1164 5.66092V6.93966C51.1164 7.60057 50.9571 8.11782 50.653 8.52011Z" fill="#3C84E7"/>
<path d="M55.0373 6.46552H59.6282V5.60345C59.6282 4.56897 59.3675 3.7931 58.8606 3.29023C58.3537 2.78736 57.6876 2.52874 56.8476 2.52874C56.0076 2.52874 55.327 2.78736 54.8201 3.29023C54.2987 3.7931 54.0526 4.56897 54.0526 5.60345V6.86782C54.0526 7.9454 54.2987 8.73563 54.8201 9.23851C55.327 9.75575 56.0076 10 56.8766 10C57.7165 10 58.3682 9.79885 58.8461 9.38218C59.324 8.97989 59.5702 8.43391 59.5702 7.74425V7.67241H58.6144V7.71552C58.6144 8.16092 58.4551 8.50575 58.1655 8.75C57.8758 9.00862 57.4703 9.12356 56.949 9.12356C56.3407 9.12356 55.8773 8.96552 55.5442 8.63506C55.1966 8.3046 55.0373 7.72989 55.0373 6.89655V6.46552ZM55.5297 3.90805C55.8483 3.59195 56.2973 3.41954 56.8476 3.41954C57.3979 3.41954 57.8469 3.57759 58.1655 3.87931C58.4841 4.1954 58.6434 4.72701 58.6434 5.47414V5.73276H55.0373V5.57471C55.0373 4.78448 55.1966 4.22414 55.5297 3.90805Z" fill="#3C84E7"/>
<path d="M61.5677 2.62931V9.91379H62.5525V5.30172C62.5525 4.75575 62.6973 4.29598 63.016 3.95115C63.3346 3.60632 63.7401 3.43391 64.2469 3.43391C64.5076 3.43391 64.7683 3.47701 65 3.54885V2.57184C64.8262 2.5431 64.6379 2.52874 64.4642 2.52874C64.0442 2.52874 63.6676 2.62931 63.3346 2.80172C63.0015 2.97414 62.7408 3.24713 62.538 3.60632V2.62931H61.5677Z" fill="#3C84E7"/>
</svg>
