<svg width="18" height="15" viewBox="0 0 18 15" fill="none" xmlns="http://www.w3.org/2000/svg">
<path d="M9 2.21079C9.97333 1.56413 11.295 1.16663 12.75 1.16663C14.2058 1.16663 15.5267 1.56413 16.5 2.21079V13.0441C15.5267 12.3975 14.2058 12 12.75 12C11.295 12 9.97333 12.3975 9 13.0441M9 2.21079V13.0441V2.21079ZM9 2.21079C8.02667 1.56413 6.705 1.16663 5.25 1.16663C3.795 1.16663 2.47333 1.56413 1.5 2.21079V13.0441C2.47333 12.3975 3.795 12 5.25 12C6.705 12 8.02667 12.3975 9 13.0441V2.21079Z" stroke="#999999" stroke-width="2" stroke-linecap="round" stroke-linejoin="round"/>
</svg>
