<svg width="24" height="24" viewBox="0 0 24 24" fill="none" xmlns="http://www.w3.org/2000/svg">
<path fill-rule="evenodd" clip-rule="evenodd" d="M12 19.5C16.1421 19.5 19.5 16.1421 19.5 12C19.5 7.85786 16.1421 4.5 12 4.5C7.85786 4.5 4.5 7.85786 4.5 12C4.5 16.1421 7.85786 19.5 12 19.5ZM12 21C16.9706 21 21 16.9706 21 12C21 7.02944 16.9706 3 12 3C7.02944 3 3 7.02944 3 12C3 16.9706 7.02944 21 12 21Z" fill="#666666"/>
<path d="M11.1667 12.8629V13.5186H12.7564V12.9786C12.7564 12.7729 12.7692 12.5929 12.8205 12.4643C12.8718 12.3357 12.9615 12.1686 13.1026 11.9886L13.8462 10.9857C14.0769 10.69 14.2436 10.4071 14.3462 10.15C14.4487 9.89286 14.5 9.59714 14.5 9.28857C14.5 8.85143 14.3974 8.46571 14.1923 8.11857C13.9872 7.77143 13.6923 7.50143 13.3077 7.29571C12.9231 7.10286 12.4872 7 12 7C11.2051 7 10.5897 7.21857 10.1667 7.63C9.73077 8.05429 9.51282 8.67143 9.5 9.46857H11.0513C11.0513 9.13429 11.1282 8.87714 11.2692 8.71C11.4103 8.54286 11.641 8.45286 11.9487 8.45286C12.2564 8.45286 12.4744 8.54286 12.6282 8.69714C12.7821 8.85143 12.859 9.07 12.859 9.34C12.859 9.52 12.8205 9.7 12.7564 9.85429C12.6795 10.0086 12.5641 10.2014 12.3974 10.42L11.6923 11.3329C11.4615 11.6286 11.3205 11.8729 11.2564 12.0657C11.1923 12.2714 11.1667 12.5286 11.1667 12.8629ZM11.1154 14.38V16H12.7949V14.38H11.1154Z" fill="#666666"/>
</svg>
