<svg width="14" height="16" viewBox="0 0 14 16" fill="none" xmlns="http://www.w3.org/2000/svg">
<path fill-rule="evenodd" clip-rule="evenodd" d="M8.757 0.0339929C8.89406 0.0703243 9.02183 0.135389 9.13182 0.224868C9.24182 0.314348 9.33153 0.426197 9.395 0.552993C9.878 1.51999 10.239 2.10699 10.602 2.58299C10.97 3.06499 11.358 3.45899 11.95 4.04999C12.6007 4.69956 13.1167 5.47119 13.4685 6.32063C13.8203 7.17006 14.0009 8.08059 14 8.99999C13.9563 10.8275 13.1996 12.5655 11.8916 13.8426C10.5836 15.1197 8.82806 15.8346 7 15.8346C5.17193 15.8346 3.41635 15.1197 2.10836 13.8426C0.800368 12.5655 0.0436898 10.8275 0 8.99999C0 7.20999 0.684 5.41699 2.05 4.04999C2.18985 3.91018 2.36802 3.81498 2.56197 3.77641C2.75592 3.73784 2.95695 3.75764 3.13965 3.83331C3.32235 3.90898 3.47852 4.03712 3.5884 4.20153C3.69829 4.36594 3.75696 4.55924 3.757 4.75699C3.757 5.87699 3.827 6.72999 4.155 7.41099C4.335 7.78499 4.616 8.15099 5.1 8.47799C5.216 7.41699 5.428 6.12399 5.714 4.89799C5.939 3.93199 6.219 2.96799 6.553 2.16399C6.72 1.76099 6.909 1.37899 7.123 1.04799C7.331 0.725993 7.599 0.398993 7.945 0.167993C8.06309 0.0893264 8.19657 0.0366925 8.33658 0.0135888C8.47658 -0.00951494 8.61989 -0.00255953 8.757 0.0339929ZM9.121 13.121C8.70182 13.5414 8.16726 13.8279 7.58507 13.9441C7.00289 14.0604 6.39929 14.0012 5.8508 13.774C5.3023 13.5468 4.8336 13.1619 4.50411 12.6681C4.17462 12.1742 3.99917 11.5937 4 11C4 11 4.879 11.5 6.5 11.5C6.5 10.5 7 7.49999 7.75 6.99999C8.25 7.99999 8.536 8.29299 9.121 8.87899C9.707 9.46399 10 10.232 10 11C10 11.768 9.707 12.536 9.121 13.121Z" fill="#F6C750"/>
</svg>
