<svg width="18" height="16" viewBox="0 0 18 16" fill="none" xmlns="http://www.w3.org/2000/svg">
<path d="M12.3333 11.3333V12.1667C12.3333 12.8297 12.0699 13.4656 11.6011 13.9344C11.1323 14.4033 10.4964 14.6667 9.83333 14.6667H4C3.33696 14.6667 2.70107 14.4033 2.23223 13.9344C1.76339 13.4656 1.5 12.8297 1.5 12.1667V3.83333C1.5 3.17029 1.76339 2.53441 2.23223 2.06557C2.70107 1.59673 3.33696 1.33333 4 1.33333H9.83333C10.4964 1.33333 11.1323 1.59673 11.6011 2.06557C12.0699 2.53441 12.3333 3.17029 12.3333 3.83333V4.66667M8.16667 11.3333L4.83333 8L8.16667 11.3333ZM4.83333 8L8.16667 4.66667L4.83333 8ZM4.83333 8H16.5H4.83333Z" stroke="#999999" stroke-width="2" stroke-linecap="round" stroke-linejoin="round"/>
</svg>
