<svg width="50" height="50" viewBox="0 0 50 50" fill="none" xmlns="http://www.w3.org/2000/svg">
<path fill-rule="evenodd" clip-rule="evenodd" d="M50 10C50 4.47715 45.5228 0 40 0H10C4.47715 0 0 4.47715 0 10V40C0 45.5228 4.47715 50 10 50H40C45.5228 50 50 45.5228 50 40V10ZM35.75 10.5H14.75C12.6789 10.5 11 12.1789 11 14.25C11 16.3211 12.6789 18 14.75 18H35.75C37.8211 18 39.5 16.3211 39.5 14.25C39.5 12.1789 37.8211 10.5 35.75 10.5ZM22 21.5H36C37.933 21.5 39.5 23.067 39.5 25C39.5 26.933 37.933 28.5 36 28.5H22C20.067 28.5 18.5 26.933 18.5 25C18.5 23.067 20.067 21.5 22 21.5ZM35.75 32.25H32.75C30.6789 32.25 29 33.9289 29 36C29 38.0711 30.6789 39.75 32.75 39.75H35.75C37.8211 39.75 39.5 38.0711 39.5 36C39.5 33.9289 37.8211 32.25 35.75 32.25Z" fill="#2BC2A3"/>
</svg>
