<svg width="20" height="20" viewBox="0 0 20 20" fill="none" xmlns="http://www.w3.org/2000/svg">
<path d="M12.5717 9.20275L9.49599 7.16103C9.35097 7.06472 9.18238 7.00944 9.00825 7.0011C8.83411 6.99277 8.66098 7.0317 8.50734 7.11372C8.35371 7.19574 8.22535 7.31778 8.13599 7.46679C8.04663 7.6158 7.99963 7.78618 8 7.95972V12.0422C7.99998 12.2156 8.04723 12.3857 8.13673 12.5344C8.22623 12.6832 8.35462 12.8049 8.50819 12.8867C8.66176 12.9685 8.83476 13.0073 9.00873 12.9989C9.1827 12.9905 9.35111 12.9352 9.49599 12.839L12.5717 10.7972C12.7034 10.7098 12.8115 10.5913 12.8862 10.4523C12.9609 10.3133 13 10.1581 13 10.0005C13 9.84284 12.9609 9.68763 12.8862 9.54864C12.8115 9.40965 12.7034 9.29117 12.5717 9.20371V9.20275Z" stroke="#999999" stroke-width="2" stroke-linecap="round" stroke-linejoin="round"/>
<path d="M18 10C18 11.0506 17.7931 12.0909 17.391 13.0615C16.989 14.0321 16.3997 14.914 15.6569 15.6569C14.914 16.3997 14.0321 16.989 13.0615 17.391C12.0909 17.7931 11.0506 18 10 18C8.94943 18 7.90914 17.7931 6.93853 17.391C5.96793 16.989 5.08601 16.3997 4.34315 15.6569C3.60028 14.914 3.011 14.0321 2.60896 13.0615C2.20693 12.0909 2 11.0506 2 10C2 7.87827 2.84285 5.84344 4.34315 4.34315C5.84344 2.84285 7.87827 2 10 2C12.1217 2 14.1566 2.84285 15.6569 4.34315C17.1571 5.84344 18 7.87827 18 10Z" stroke="#999999" stroke-width="2" stroke-linecap="round" stroke-linejoin="round"/>
</svg>
