<svg width="22" height="19" viewBox="0 0 22 19" fill="none" xmlns="http://www.w3.org/2000/svg">
<path d="M14.6 4.19961C14.6 5.15439 14.2207 6.07006 13.5455 6.74519C12.8704 7.42032 11.9547 7.79961 11 7.79961C10.0452 7.79961 9.1295 7.42032 8.45437 6.74519C7.77924 6.07006 7.39995 5.15439 7.39995 4.19961C7.39995 3.24483 7.77924 2.32916 8.45437 1.65402C9.1295 0.978894 10.0452 0.599609 11 0.599609C11.9547 0.599609 12.8704 0.978894 13.5455 1.65402C14.2207 2.32916 14.5999 3.24483 14.6 4.19961ZM20.6 6.59961C20.6 7.23613 20.3471 7.84658 19.897 8.29666C19.4469 8.74675 18.8365 8.99961 18.1999 8.99961C17.5634 8.99961 16.953 8.74675 16.5029 8.29666C16.0528 7.84658 15.8 7.23613 15.8 6.59961C15.8 5.96309 16.0528 5.35264 16.5029 4.90255C16.953 4.45247 17.5634 4.19961 18.1999 4.19961C18.8365 4.19961 19.4469 4.45247 19.897 4.90255C20.3471 5.35264 20.6 5.96309 20.6 6.59961ZM15.8 14.9996C15.8 13.7266 15.2942 12.5057 14.3941 11.6055C13.4939 10.7053 12.273 10.1996 11 10.1996C9.72691 10.1996 8.50601 10.7053 7.60584 11.6055C6.70566 12.5057 6.19995 13.7266 6.19995 14.9996V18.5996H15.8V14.9996ZM6.19995 6.59961C6.19995 7.23613 5.94709 7.84658 5.49701 8.29666C5.04692 8.74675 4.43647 8.99961 3.79995 8.99961C3.16343 8.99961 2.55298 8.74675 2.10289 8.29666C1.65281 7.84658 1.39995 7.23613 1.39995 6.59961C1.39995 5.96309 1.65281 5.35264 2.10289 4.90255C2.55298 4.45247 3.16343 4.19961 3.79995 4.19961C4.43647 4.19961 5.04692 4.45247 5.49701 4.90255C5.94709 5.35264 6.19995 5.96309 6.19995 6.59961ZM18.1999 18.5996V14.9996C18.2017 13.7795 17.8919 12.5792 17.2999 11.5124C17.832 11.3763 18.3881 11.3634 18.9258 11.4749C19.4635 11.5863 19.9687 11.8191 20.4028 12.1555C20.8368 12.4919 21.1884 12.923 21.4305 13.4159C21.6726 13.9088 21.799 14.4504 21.7999 14.9996V18.5996H18.1999ZM4.69995 11.5124C4.10805 12.5793 3.79827 13.7796 3.79995 14.9996V18.5996H0.199951V14.9996C0.19972 14.4501 0.325307 13.9077 0.567088 13.4142C0.808868 12.9207 1.16042 12.4891 1.59481 12.1525C2.0292 11.8159 2.53489 11.5832 3.07312 11.4722C3.61136 11.3613 4.16785 11.375 4.69995 11.5124Z" fill="#999999"/>
</svg>
