<svg width="24" height="24" viewBox="0 0 24 24" fill="none" xmlns="http://www.w3.org/2000/svg">
<path fill-rule="evenodd" clip-rule="evenodd" d="M3.87868 20.1213C3.31607 19.5587 3 18.7956 3 18L3 6C3 5.20435 3.31607 4.44129 3.87868 3.87868C4.44129 3.31607 5.20435 3 6 3L18 3C18.7956 3 19.5587 3.31607 20.1213 3.87868C20.6839 4.44129 21 5.20435 21 6L21 18C21 18.7956 20.6839 19.5587 20.1213 20.1213C19.5587 20.6839 18.7956 21 18 21L6 21C5.20435 21 4.44129 20.6839 3.87868 20.1213ZM5 18C5 18.2652 5.10536 18.5196 5.29289 18.7071C5.48043 18.8946 5.73478 19 6 19L18 19C18.2652 19 18.5196 18.8946 18.7071 18.7071C18.8946 18.5196 19 18.2652 19 18L19 6C19 5.73478 18.8946 5.48043 18.7071 5.29289C18.5196 5.10536 18.2652 5 18 5L6 5C5.73478 5 5.48043 5.10536 5.29289 5.29289C5.10536 5.48043 5 5.73478 5 6L5 18ZM7 8C7 7.44771 7.44771 7 8 7L16 7C16.5523 7 17 7.44771 17 8C17 8.55228 16.5523 9 16 9L8 9C7.44771 9 7 8.55229 7 8ZM10 12C10 11.4477 10.4477 11 11 11L16 11C16.5523 11 17 11.4477 17 12C17 12.5523 16.5523 13 16 13L11 13C10.4477 13 10 12.5523 10 12ZM13 16C13 15.4477 13.4477 15 14 15L16 15C16.5523 15 17 15.4477 17 16C17 16.5523 16.5523 17 16 17L14 17C13.4477 17 13 16.5523 13 16Z" fill="#999999"/>
</svg>
