<svg width="34" height="34" viewBox="0 0 34 34" fill="none" xmlns="http://www.w3.org/2000/svg">
<g clip-path="url(#clip0_9791:34093)">
<path fill-rule="evenodd" clip-rule="evenodd" d="M28.5397 28.5397C25.4261 31.6533 21.2033 33.4025 16.8 33.4025C12.3968 33.4025 8.17395 31.6533 5.06041 28.5397C1.94686 25.4262 0.197693 21.2033 0.197693 16.8001C0.197693 12.3969 1.94686 8.17401 5.06041 5.06047C8.17395 1.94693 12.3968 0.197754 16.8 0.197754C21.2033 0.197754 25.4261 1.94693 28.5397 5.06047C31.6532 8.17401 33.4024 12.3969 33.4024 16.8001C33.4024 21.2033 31.6532 25.4262 28.5397 28.5397Z" fill="#3C84E7"/>
<rect x="15.0706" y="8.15283" width="3.45882" height="17.2941" rx="1.72941" fill="white"/>
<rect x="25.4471" y="15.0706" width="3.45882" height="17.2941" rx="1.72941" transform="rotate(90 25.4471 15.0706)" fill="white"/>
</g>
<defs>
<clipPath id="clip0_9791:34093">
<rect width="33.6" height="33.6" fill="white"/>
</clipPath>
</defs>
</svg>
