<svg width="16" height="18" viewBox="0 0 16 18" fill="none" xmlns="http://www.w3.org/2000/svg">
<path d="M8.00004 11.5V13.1667M3.00004 16.5H13C13.4421 16.5 13.866 16.3244 14.1786 16.0119C14.4911 15.6993 14.6667 15.2754 14.6667 14.8334V9.83336C14.6667 9.39134 14.4911 8.96741 14.1786 8.65485C13.866 8.34229 13.4421 8.1667 13 8.1667H3.00004C2.55801 8.1667 2.13409 8.34229 1.82153 8.65485C1.50897 8.96741 1.33337 9.39134 1.33337 9.83336V14.8334C1.33337 15.2754 1.50897 15.6993 1.82153 16.0119C2.13409 16.3244 2.55801 16.5 3.00004 16.5ZM11.3334 8.1667V4.83336C11.3334 3.94931 10.9822 3.10146 10.3571 2.47634C9.73194 1.85122 8.88409 1.50003 8.00004 1.50003C7.11599 1.50003 6.26814 1.85122 5.64302 2.47634C5.0179 3.10146 4.66671 3.94931 4.66671 4.83336V8.1667H11.3334Z" stroke="#999999" stroke-width="2" stroke-linecap="round" stroke-linejoin="round"/>
</svg>
