<svg width="37" height="38" viewBox="0 0 37 38" fill="none" xmlns="http://www.w3.org/2000/svg">
<rect width="37" height="37" rx="18.5" fill="#F1F1F1"/>
<path d="M26.71 26.29L23.31 22.9C24.407 21.5025 25.0022 19.7767 25 18C25 16.4178 24.5308 14.871 23.6518 13.5554C22.7727 12.2398 21.5233 11.2145 20.0615 10.609C18.5997 10.0035 16.9911 9.84504 15.4393 10.1537C13.8874 10.4624 12.462 11.2243 11.3431 12.3431C10.2243 13.462 9.4624 14.8874 9.15372 16.4393C8.84504 17.9911 9.00347 19.5997 9.60897 21.0615C10.2145 22.5233 11.2398 23.7727 12.5554 24.6518C13.871 25.5308 15.4178 26 17 26C18.7767 26.0022 20.5025 25.407 21.9 24.31L25.29 27.71C25.383 27.8037 25.4936 27.8781 25.6154 27.9289C25.7373 27.9797 25.868 28.0058 26 28.0058C26.132 28.0058 26.2627 27.9797 26.3846 27.9289C26.5064 27.8781 26.617 27.8037 26.71 27.71C26.8037 27.617 26.8781 27.5064 26.9289 27.3846C26.9797 27.2627 27.0058 27.132 27.0058 27C27.0058 26.868 26.9797 26.7373 26.9289 26.6154C26.8781 26.4936 26.8037 26.383 26.71 26.29ZM11 18C11 16.8133 11.3519 15.6533 12.0112 14.6666C12.6705 13.6799 13.6075 12.9109 14.7039 12.4567C15.8003 12.0026 17.0067 11.8838 18.1705 12.1153C19.3344 12.3468 20.4035 12.9182 21.2426 13.7574C22.0818 14.5965 22.6532 15.6656 22.8847 16.8295C23.1162 17.9933 22.9974 19.1997 22.5433 20.2961C22.0892 21.3925 21.3201 22.3295 20.3334 22.9888C19.3467 23.6481 18.1867 24 17 24C15.4087 24 13.8826 23.3679 12.7574 22.2426C11.6321 21.1174 11 19.5913 11 18Z" fill="#999999"/>
</svg>
