<svg width="18" height="18" viewBox="0 0 18 18" fill="none" xmlns="http://www.w3.org/2000/svg">
<path d="M14.3033 3.69667L11.3567 6.64333L14.3033 3.69667ZM11.3567 11.3567L14.3033 14.3033L11.3567 11.3567ZM6.64333 6.64333L3.69667 3.69667L6.64333 6.64333ZM6.64333 11.3567L3.69667 14.3033L6.64333 11.3567ZM16.5 9C16.5 9.98491 16.306 10.9602 15.9291 11.8701C15.5522 12.7801 14.9997 13.6069 14.3033 14.3033C13.6069 14.9997 12.7801 15.5522 11.8701 15.9291C10.9602 16.306 9.98491 16.5 9 16.5C8.01509 16.5 7.03982 16.306 6.12987 15.9291C5.21993 15.5522 4.39314 14.9997 3.6967 14.3033C3.00026 13.6069 2.44781 12.7801 2.0709 11.8701C1.69399 10.9602 1.5 9.98491 1.5 9C1.5 7.01088 2.29018 5.10322 3.6967 3.6967C5.10322 2.29018 7.01088 1.5 9 1.5C10.9891 1.5 12.8968 2.29018 14.3033 3.6967C15.7098 5.10322 16.5 7.01088 16.5 9ZM12.3333 9C12.3333 9.88405 11.9821 10.7319 11.357 11.357C10.7319 11.9821 9.88405 12.3333 9 12.3333C8.11594 12.3333 7.2681 11.9821 6.64298 11.357C6.01786 10.7319 5.66667 9.88405 5.66667 9C5.66667 8.11594 6.01786 7.2681 6.64298 6.64298C7.2681 6.01786 8.11594 5.66667 9 5.66667C9.88405 5.66667 10.7319 6.01786 11.357 6.64298C11.9821 7.2681 12.3333 8.11594 12.3333 9V9Z" stroke="#999999" stroke-width="2" stroke-linecap="round" stroke-linejoin="round"/>
</svg>
