<svg width="48" height="48" viewBox="0 0 48 48" fill="none" xmlns="http://www.w3.org/2000/svg">
<circle cx="24" cy="24" r="24" fill="#F1F1F1"/>
<path d="M25 34.0001H22V31.0001H25V34.0001ZM25 29.0001H22V28.9931C22 27.3431 22 25.9181 22.672 24.9201C23.1948 24.2575 23.8453 23.7066 24.585 23.3001C24.919 23.0861 25.234 22.8831 25.499 22.6721C26.6604 21.7731 27.1826 20.274 26.831 18.8481C26.2747 17.5182 24.8593 16.7636 23.4451 17.043C22.0309 17.3224 21.0088 18.5586 21 20.0001H18C18 16.6863 20.6863 14 24 14C26.3053 13.9931 28.4134 15.299 29.434 17.3661C30.3507 19.4722 29.9883 21.9165 28.5 23.6661C28.0475 24.1675 27.5396 24.6161 26.986 25.0031C26.5016 25.3372 26.0597 25.7291 25.67 26.1701C25.1193 27.0046 24.8819 28.0072 25 29.0001Z" fill="#3C84E7"/>
</svg>
