<svg width="50" height="50" viewBox="0 0 50 50" fill="none" xmlns="http://www.w3.org/2000/svg">
<path d="M0 10C0 4.47715 4.47715 0 10 0H40C45.5228 0 50 4.47715 50 10V40C50 45.5228 45.5228 50 40 50H10C4.47715 50 0 45.5228 0 40V10Z" fill="#F6C750"/>
<path d="M31.5417 34.1667H37.5834V31.75C37.5833 30.9967 37.3485 30.2621 36.9117 29.6483C36.4748 29.0345 35.8576 28.5721 35.1458 28.3253C34.4341 28.0785 33.6631 28.0596 32.94 28.2713C32.217 28.4829 31.5779 28.9145 31.1115 29.5062M31.5417 34.1667H19.4584M31.5417 34.1667V31.75C31.5417 30.9574 31.3894 30.1997 31.1115 29.5062M31.1115 29.5062C30.6628 28.3848 29.8884 27.4236 28.8882 26.7465C27.888 26.0694 26.7078 25.7075 25.5 25.7075C24.2922 25.7075 23.1121 26.0694 22.1119 26.7465C21.1117 27.4236 20.3372 28.3848 19.8885 29.5062M19.4584 34.1667H13.4167V31.75C13.4167 30.9967 13.6515 30.2621 14.0884 29.6483C14.5252 29.0345 15.1424 28.5721 15.8542 28.3253C16.566 28.0785 17.337 28.0596 18.06 28.2713C18.783 28.4829 19.4221 28.9145 19.8885 29.5062M19.4584 34.1667V31.75C19.4584 30.9574 19.6106 30.1997 19.8885 29.5062M29.125 18.4584C29.125 19.4198 28.7431 20.3418 28.0633 21.0216C27.3835 21.7015 26.4614 22.0834 25.5 22.0834C24.5386 22.0834 23.6166 21.7015 22.9368 21.0216C22.2569 20.3418 21.875 19.4198 21.875 18.4584C21.875 17.497 22.2569 16.5749 22.9368 15.8951C23.6166 15.2153 24.5386 14.8334 25.5 14.8334C26.4614 14.8334 27.3835 15.2153 28.0633 15.8951C28.7431 16.5749 29.125 17.497 29.125 18.4584ZM36.375 22.0834C36.375 22.7243 36.1204 23.339 35.6672 23.7922C35.214 24.2454 34.5993 24.5 33.9584 24.5C33.3174 24.5 32.7027 24.2454 32.2495 23.7922C31.7963 23.339 31.5417 22.7243 31.5417 22.0834C31.5417 21.4424 31.7963 20.8277 32.2495 20.3745C32.7027 19.9213 33.3174 19.6667 33.9584 19.6667C34.5993 19.6667 35.214 19.9213 35.6672 20.3745C36.1204 20.8277 36.375 21.4424 36.375 22.0834ZM19.4584 22.0834C19.4584 22.7243 19.2037 23.339 18.7505 23.7922C18.2973 24.2454 17.6826 24.5 17.0417 24.5C16.4007 24.5 15.7861 24.2454 15.3328 23.7922C14.8796 23.339 14.625 22.7243 14.625 22.0834C14.625 21.4424 14.8796 20.8277 15.3328 20.3745C15.7861 19.9213 16.4007 19.6667 17.0417 19.6667C17.6826 19.6667 18.2973 19.9213 18.7505 20.3745C19.2037 20.8277 19.4584 21.4424 19.4584 22.0834Z" stroke="white" stroke-width="2" stroke-linecap="round" stroke-linejoin="round"/>
</svg>
